<svg width="1002" height="1280" xmlns="http://www.w3.org/2000/svg" xmlns:xlink="http://www.w3.org/1999/xlink" overflow="hidden"><defs><clipPath id="clip0"><rect x="0" y="0" width="1002" height="1280"/></clipPath><clipPath id="clip1"><rect x="553" y="-44" width="449" height="158"/></clipPath><clipPath id="clip2"><rect x="265" y="-44" width="289" height="158"/></clipPath><clipPath id="clip3"><rect x="128" y="-44" width="138" height="158"/></clipPath><clipPath id="clip4"><rect x="47" y="-122" width="82" height="314"/></clipPath><clipPath id="clip5"><rect x="47" y="-122" width="82" height="314"/></clipPath><clipPath id="clip6"><rect x="18" y="-44" width="30" height="158"/></clipPath><clipPath id="clip7"><rect x="553" y="-128" width="449" height="471"/></clipPath><clipPath id="clip8"><rect x="553" y="-128" width="449" height="471"/></clipPath><clipPath id="clip9"><rect x="553" y="-128" width="449" height="471"/></clipPath><clipPath id="clip10"><rect x="265" y="29" width="289" height="157"/></clipPath><clipPath id="clip11"><rect x="128" y="29" width="138" height="157"/></clipPath><clipPath id="clip12"><rect x="47" y="58" width="82" height="315"/></clipPath><clipPath id="clip13"><rect x="47" y="58" width="82" height="315"/></clipPath><clipPath id="clip14"><rect x="18" y="29" width="30" height="157"/></clipPath><clipPath id="clip15"><rect x="553" y="-52" width="449" height="471"/></clipPath><clipPath id="clip16"><rect x="553" y="-52" width="449" height="471"/></clipPath><clipPath id="clip17"><rect x="553" y="-52" width="449" height="471"/></clipPath><clipPath id="clip18"><rect x="265" y="26" width="289" height="315"/></clipPath><clipPath id="clip19"><rect x="265" y="26" width="289" height="315"/></clipPath><clipPath id="clip20"><rect x="128" y="104" width="138" height="158"/></clipPath><clipPath id="clip21"><rect x="18" y="104" width="30" height="158"/></clipPath><clipPath id="clip22"><rect x="553" y="90" width="449" height="314"/></clipPath><clipPath id="clip23"><rect x="553" y="90" width="449" height="314"/></clipPath><clipPath id="clip24"><rect x="265" y="90" width="289" height="314"/></clipPath><clipPath id="clip25"><rect x="265" y="90" width="289" height="314"/></clipPath><clipPath id="clip26"><rect x="128" y="168" width="138" height="158"/></clipPath><clipPath id="clip27"><rect x="18" y="168" width="30" height="158"/></clipPath><clipPath id="clip28"><rect x="553" y="81" width="449" height="471"/></clipPath><clipPath id="clip29"><rect x="553" y="81" width="449" height="471"/></clipPath><clipPath id="clip30"><rect x="553" y="81" width="449" height="471"/></clipPath><clipPath id="clip31"><rect x="265" y="160" width="289" height="314"/></clipPath><clipPath id="clip32"><rect x="265" y="160" width="289" height="314"/></clipPath><clipPath id="clip33"><rect x="128" y="238" width="138" height="158"/></clipPath><clipPath id="clip34"><rect x="18" y="238" width="30" height="158"/></clipPath><clipPath id="clip35"><rect x="553" y="98" width="449" height="628"/></clipPath><clipPath id="clip36"><rect x="553" y="98" width="449" height="628"/></clipPath><clipPath id="clip37"><rect x="553" y="98" width="449" height="628"/></clipPath><clipPath id="clip38"><rect x="553" y="98" width="449" height="628"/></clipPath><clipPath id="clip39"><rect x="265" y="255" width="289" height="314"/></clipPath><clipPath id="clip40"><rect x="265" y="255" width="289" height="314"/></clipPath><clipPath id="clip41"><rect x="128" y="333" width="138" height="158"/></clipPath><clipPath id="clip42"><rect x="47" y="396" width="82" height="314"/></clipPath><clipPath id="clip43"><rect x="47" y="396" width="82" height="314"/></clipPath><clipPath id="clip44"><rect x="18" y="333" width="30" height="158"/></clipPath><clipPath id="clip45"><rect x="553" y="199" width="449" height="628"/></clipPath><clipPath id="clip46"><rect x="553" y="199" width="449" height="628"/></clipPath><clipPath id="clip47"><rect x="553" y="199" width="449" height="628"/></clipPath><clipPath id="clip48"><rect x="553" y="199" width="449" height="628"/></clipPath><clipPath id="clip49"><rect x="265" y="434" width="289" height="158"/></clipPath><clipPath id="clip50"><rect x="128" y="434" width="138" height="158"/></clipPath><clipPath id="clip51"><rect x="18" y="434" width="30" height="158"/></clipPath><clipPath id="clip52"><rect x="553" y="374" width="449" height="471"/></clipPath><clipPath id="clip53"><rect x="553" y="374" width="449" height="471"/></clipPath><clipPath id="clip54"><rect x="553" y="374" width="449" height="471"/></clipPath><clipPath id="clip55"><rect x="553" y="374" width="449" height="471"/></clipPath><clipPath id="clip56"><rect x="265" y="530" width="289" height="158"/></clipPath><clipPath id="clip57"><rect x="128" y="530" width="138" height="158"/></clipPath><clipPath id="clip58"><rect x="18" y="530" width="30" height="158"/></clipPath><clipPath id="clip59"><rect x="553" y="464" width="449" height="471"/></clipPath><clipPath id="clip60"><rect x="553" y="464" width="449" height="471"/></clipPath><clipPath id="clip61"><rect x="553" y="464" width="449" height="471"/></clipPath><clipPath id="clip62"><rect x="265" y="543" width="289" height="314"/></clipPath><clipPath id="clip63"><rect x="265" y="543" width="289" height="314"/></clipPath><clipPath id="clip64"><rect x="128" y="621" width="138" height="158"/></clipPath><clipPath id="clip65"><rect x="18" y="621" width="30" height="158"/></clipPath><clipPath id="clip66"><rect x="553" y="645" width="449" height="314"/></clipPath><clipPath id="clip67"><rect x="553" y="645" width="449" height="314"/></clipPath><clipPath id="clip68"><rect x="265" y="488" width="289" height="628"/></clipPath><clipPath id="clip69"><rect x="265" y="488" width="289" height="628"/></clipPath><clipPath id="clip70"><rect x="265" y="488" width="289" height="628"/></clipPath><clipPath id="clip71"><rect x="265" y="488" width="289" height="628"/></clipPath><clipPath id="clip72"><rect x="128" y="723" width="138" height="158"/></clipPath><clipPath id="clip73"><rect x="47" y="716" width="82" height="315"/></clipPath><clipPath id="clip74"><rect x="47" y="716" width="82" height="315"/></clipPath><clipPath id="clip75"><rect x="18" y="723" width="30" height="158"/></clipPath><clipPath id="clip76"><rect x="553" y="727" width="449" height="315"/></clipPath><clipPath id="clip77"><rect x="553" y="727" width="449" height="315"/></clipPath><clipPath id="clip78"><rect x="265" y="727" width="289" height="315"/></clipPath><clipPath id="clip79"><rect x="265" y="727" width="289" height="315"/></clipPath><clipPath id="clip80"><rect x="128" y="806" width="138" height="158"/></clipPath><clipPath id="clip81"><rect x="18" y="806" width="30" height="158"/></clipPath><clipPath id="clip82"><rect x="553" y="721" width="449" height="471"/></clipPath><clipPath id="clip83"><rect x="553" y="721" width="449" height="471"/></clipPath><clipPath id="clip84"><rect x="553" y="721" width="449" height="471"/></clipPath><clipPath id="clip85"><rect x="553" y="721" width="449" height="471"/></clipPath><clipPath id="clip86"><rect x="265" y="721" width="289" height="471"/></clipPath><clipPath id="clip87"><rect x="265" y="721" width="289" height="471"/></clipPath><clipPath id="clip88"><rect x="265" y="721" width="289" height="471"/></clipPath><clipPath id="clip89"><rect x="128" y="877" width="138" height="158"/></clipPath><clipPath id="clip90"><rect x="18" y="877" width="30" height="158"/></clipPath><clipPath id="clip91"><rect x="553" y="739" width="449" height="628"/></clipPath><clipPath id="clip92"><rect x="553" y="739" width="449" height="628"/></clipPath><clipPath id="clip93"><rect x="553" y="739" width="449" height="628"/></clipPath><clipPath id="clip94"><rect x="553" y="739" width="449" height="628"/></clipPath><clipPath id="clip95"><rect x="265" y="817" width="289" height="471"/></clipPath><clipPath id="clip96"><rect x="265" y="817" width="289" height="471"/></clipPath><clipPath id="clip97"><rect x="265" y="817" width="289" height="471"/></clipPath><clipPath id="clip98"><rect x="128" y="974" width="138" height="158"/></clipPath><clipPath id="clip99"><rect x="47" y="905" width="82" height="472"/></clipPath><clipPath id="clip100"><rect x="47" y="905" width="82" height="472"/></clipPath><clipPath id="clip101"><rect x="47" y="905" width="82" height="472"/></clipPath><clipPath id="clip102"><rect x="18" y="974" width="30" height="158"/></clipPath><clipPath id="clip103"><rect x="553" y="905" width="449" height="472"/></clipPath><clipPath id="clip104"><rect x="553" y="905" width="449" height="472"/></clipPath><clipPath id="clip105"><rect x="553" y="905" width="449" height="472"/></clipPath><clipPath id="clip106"><rect x="265" y="984" width="289" height="314"/></clipPath><clipPath id="clip107"><rect x="265" y="984" width="289" height="314"/></clipPath><clipPath id="clip108"><rect x="128" y="1062" width="138" height="158"/></clipPath><clipPath id="clip109"><rect x="18" y="1062" width="30" height="158"/></clipPath><clipPath id="clip110"><rect x="553" y="915" width="449" height="628"/></clipPath><clipPath id="clip111"><rect x="553" y="915" width="449" height="628"/></clipPath><clipPath id="clip112"><rect x="553" y="915" width="449" height="628"/></clipPath><clipPath id="clip113"><rect x="553" y="915" width="449" height="628"/></clipPath><clipPath id="clip114"><rect x="265" y="994" width="289" height="471"/></clipPath><clipPath id="clip115"><rect x="265" y="994" width="289" height="471"/></clipPath><clipPath id="clip116"><rect x="265" y="994" width="289" height="471"/></clipPath><clipPath id="clip117"><rect x="128" y="1151" width="138" height="157"/></clipPath><clipPath id="clip118"><rect x="18" y="1151" width="30" height="157"/></clipPath></defs><g clip-path="url(#clip0)"><rect x="0" y="0" width="1002" height="1279.57" fill="#FFFFFF"/><path d="M18.923 0 47.7312 0 47.7312 69.2084 18.923 69.2084Z" fill="#FFFFFF" fill-rule="evenodd"/><path d="M47.7312 0 128.754 0 128.754 69.2084 47.7312 69.2084Z" fill="#FFFFFF" fill-rule="evenodd"/><path d="M128.754 0 265.593 0 265.593 69.2084 128.754 69.2084Z" fill="#FFFFFF" fill-rule="evenodd"/><path d="M265.593 0 553.364 0 553.364 69.2084 265.593 69.2084Z" fill="#FFFFFF" fill-rule="evenodd"/><path d="M553.364 0 1002 0 1002 69.2084 553.364 69.2084Z" fill="#FFFFFF" fill-rule="evenodd"/><path d="M18.923 69.2084 47.7312 69.2084 47.7312 145.153 18.923 145.153Z" fill="#FFFFFF" fill-rule="evenodd"/><path d="M47.7312 69.2084 128.754 69.2084 128.754 361.243 47.7312 361.243Z" fill="#FFFFFF" fill-rule="evenodd"/><path d="M128.754 69.2084 265.593 69.2084 265.593 145.153 128.754 145.153Z" fill="#FFFFFF" fill-rule="evenodd"/><path d="M265.593 69.2084 553.364 69.2084 553.364 145.153 265.593 145.153Z" fill="#FFFFFF" fill-rule="evenodd"/><path d="M553.364 69.2084 1002 69.2084 1002 145.153 553.364 145.153Z" fill="#FFFFFF" fill-rule="evenodd"/><path d="M18.923 145.153 47.7312 145.153 47.7312 221.099 18.923 221.099Z" fill="#FFFFFF" fill-rule="evenodd"/><path d="M128.754 145.153 265.593 145.153 265.593 221.099 128.754 221.099Z" fill="#FFFFFF" fill-rule="evenodd"/><path d="M265.593 145.153 553.364 145.153 553.364 221.099 265.593 221.099Z" fill="#FFFFFF" fill-rule="evenodd"/><path d="M553.364 145.153 1002 145.153 1002 221.099 553.364 221.099Z" fill="#FFFFFF" fill-rule="evenodd"/><path d="M18.923 221.099 47.7312 221.099 47.7312 271.997 18.923 271.997Z" fill="#FFFFFF" fill-rule="evenodd"/><path d="M128.754 221.099 265.593 221.099 265.593 271.997 128.754 271.997Z" fill="#FFFFFF" fill-rule="evenodd"/><path d="M265.593 221.099 553.364 221.099 553.364 271.997 265.593 271.997Z" fill="#FFFFFF" fill-rule="evenodd"/><path d="M553.364 221.099 1002 221.099 1002 271.997 553.364 271.997Z" fill="#FFFFFF" fill-rule="evenodd"/><path d="M18.923 271.997 47.7312 271.997 47.7312 361.243 18.923 361.243Z" fill="#FFFFFF" fill-rule="evenodd"/><path d="M128.754 271.997 265.593 271.997 265.593 361.243 128.754 361.243Z" fill="#FFFFFF" fill-rule="evenodd"/><path d="M265.593 271.997 553.364 271.997 553.364 361.243 265.593 361.243Z" fill="#FFFFFF" fill-rule="evenodd"/><path d="M553.364 271.997 1002 271.997 1002 361.243 553.364 361.243Z" fill="#FFFFFF" fill-rule="evenodd"/><path d="M18.923 361.243 47.7312 361.243 47.7312 462.135 18.923 462.135Z" fill="#FFFFFF" fill-rule="evenodd"/><path d="M47.7312 361.243 128.754 361.243 128.754 744.35 47.7312 744.35Z" fill="#FFFFFF" fill-rule="evenodd"/><path d="M128.754 361.243 265.593 361.243 265.593 462.135 128.754 462.135Z" fill="#FFFFFF" fill-rule="evenodd"/><path d="M265.593 361.243 553.364 361.243 553.364 462.135 265.593 462.135Z" fill="#FFFFFF" fill-rule="evenodd"/><path d="M553.364 361.243 1002 361.243 1002 462.135 553.364 462.135Z" fill="#FFFFFF" fill-rule="evenodd"/><path d="M18.923 462.135 47.7312 462.135 47.7312 563.026 18.923 563.026Z" fill="#FFFFFF" fill-rule="evenodd"/><path d="M128.754 462.135 265.593 462.135 265.593 563.026 128.754 563.026Z" fill="#FFFFFF" fill-rule="evenodd"/><path d="M265.593 462.135 553.364 462.135 553.364 563.026 265.593 563.026Z" fill="#FFFFFF" fill-rule="evenodd"/><path d="M553.364 462.135 1002 462.135 1002 563.026 553.364 563.026Z" fill="#FFFFFF" fill-rule="evenodd"/><path d="M18.923 563.026 47.7312 563.026 47.7312 655.103 18.923 655.103Z" fill="#FFFFFF" fill-rule="evenodd"/><path d="M128.754 563.026 265.593 563.026 265.593 655.103 128.754 655.103Z" fill="#FFFFFF" fill-rule="evenodd"/><path d="M265.593 563.026 553.364 563.026 553.364 655.103 265.593 655.103Z" fill="#FFFFFF" fill-rule="evenodd"/><path d="M553.364 563.026 1002 563.026 1002 655.103 553.364 655.103Z" fill="#FFFFFF" fill-rule="evenodd"/><path d="M18.923 655.103 47.7312 655.103 47.7312 744.35 18.923 744.35Z" fill="#FFFFFF" fill-rule="evenodd"/><path d="M128.754 655.103 265.593 655.103 265.593 744.35 128.754 744.35Z" fill="#FFFFFF" fill-rule="evenodd"/><path d="M265.593 655.103 553.364 655.103 553.364 744.35 265.593 744.35Z" fill="#FFFFFF" fill-rule="evenodd"/><path d="M553.364 655.103 1002 655.103 1002 744.35 553.364 744.35Z" fill="#FFFFFF" fill-rule="evenodd"/><path d="M18.923 744.35 47.7312 744.35 47.7312 859.297 18.923 859.297Z" fill="#FFFFFF" fill-rule="evenodd"/><path d="M47.7312 744.35 128.754 744.35 128.754 1002.27 47.7312 1002.27Z" fill="#FFFFFF" fill-rule="evenodd"/><path d="M128.754 744.35 265.593 744.35 265.593 859.297 128.754 859.297Z" fill="#FFFFFF" fill-rule="evenodd"/><path d="M265.593 744.35 553.364 744.35 553.364 859.297 265.593 859.297Z" fill="#FFFFFF" fill-rule="evenodd"/><path d="M553.364 744.35 1002 744.35 1002 859.297 553.364 859.297Z" fill="#FFFFFF" fill-rule="evenodd"/><path d="M18.923 859.297 47.7312 859.297 47.7312 910.195 18.923 910.195Z" fill="#FFFFFF" fill-rule="evenodd"/><path d="M128.754 859.297 265.593 859.297 265.593 910.195 128.754 910.195Z" fill="#FFFFFF" fill-rule="evenodd"/><path d="M265.593 859.297 553.364 859.297 553.364 910.195 265.593 910.195Z" fill="#FFFFFF" fill-rule="evenodd"/><path d="M553.364 859.297 1002 859.297 1002 910.195 553.364 910.195Z" fill="#FFFFFF" fill-rule="evenodd"/><path d="M18.923 910.195 47.7312 910.195 47.7312 1002.27 18.923 1002.27Z" fill="#FFFFFF" fill-rule="evenodd"/><path d="M128.754 910.195 265.593 910.195 265.593 1002.27 128.754 1002.27Z" fill="#FFFFFF" fill-rule="evenodd"/><path d="M265.593 910.195 553.364 910.195 553.364 1002.27 265.593 1002.27Z" fill="#FFFFFF" fill-rule="evenodd"/><path d="M553.364 910.195 1002 910.195 1002 1002.27 553.364 1002.27Z" fill="#FFFFFF" fill-rule="evenodd"/><path d="M18.923 1002.27 47.7312 1002.27 47.7312 1103.16 18.923 1103.16Z" fill="#FFFFFF" fill-rule="evenodd"/><path d="M47.7312 1002.27 128.754 1002.27 128.754 1280 47.7312 1280Z" fill="#FFFFFF" fill-rule="evenodd"/><path d="M128.754 1002.27 265.593 1002.27 265.593 1103.16 128.754 1103.16Z" fill="#FFFFFF" fill-rule="evenodd"/><path d="M265.593 1002.27 553.364 1002.27 553.364 1103.16 265.593 1103.16Z" fill="#FFFFFF" fill-rule="evenodd"/><path d="M553.364 1002.27 1002 1002.27 1002 1103.16 553.364 1103.16Z" fill="#FFFFFF" fill-rule="evenodd"/><path d="M18.923 1103.16 47.7312 1103.16 47.7312 1179.11 18.923 1179.11Z" fill="#FFFFFF" fill-rule="evenodd"/><path d="M128.754 1103.16 265.593 1103.16 265.593 1179.11 128.754 1179.11Z" fill="#FFFFFF" fill-rule="evenodd"/><path d="M265.593 1103.16 553.364 1103.16 553.364 1179.11 265.593 1179.11Z" fill="#FFFFFF" fill-rule="evenodd"/><path d="M553.364 1103.16 1002 1103.16 1002 1179.11 553.364 1179.11Z" fill="#FFFFFF" fill-rule="evenodd"/><path d="M18.923 1179.11 47.7312 1179.11 47.7312 1280 18.923 1280Z" fill="#FFFFFF" fill-rule="evenodd"/><path d="M128.754 1179.11 265.593 1179.11 265.593 1280 128.754 1280Z" fill="#FFFFFF" fill-rule="evenodd"/><path d="M265.593 1179.11 553.364 1179.11 553.364 1280 265.593 1280Z" fill="#FFFFFF" fill-rule="evenodd"/><path d="M553.364 1179.11 1002 1179.11 1002 1280 553.364 1280Z" fill="#FFFFFF" fill-rule="evenodd"/><path d="M47.7312-0.666667 47.7312 1280.67" stroke="#000000" stroke-width="1.33378" stroke-linejoin="round" stroke-miterlimit="10" fill="none" fill-rule="evenodd"/><path d="M128.754-0.666667 128.754 1280.67" stroke="#000000" stroke-width="1.33378" stroke-linejoin="round" stroke-miterlimit="10" fill="none" fill-rule="evenodd"/><path d="M265.593-0.666667 265.593 1280.67" stroke="#000000" stroke-width="1.33378" stroke-linejoin="round" stroke-miterlimit="10" fill="none" fill-rule="evenodd"/><path d="M553.364-0.666667 553.364 1280.67" stroke="#000000" stroke-width="1.33378" stroke-linejoin="round" stroke-miterlimit="10" fill="none" fill-rule="evenodd"/><path d="M18.2562 69.2084 1002.67 69.2084" stroke="#000000" stroke-width="1.33378" stroke-linejoin="round" stroke-miterlimit="10" fill="none" fill-rule="evenodd"/><path d="M18.2562 145.153 48.398 145.153" stroke="#000000" stroke-width="1.33378" stroke-linejoin="round" stroke-miterlimit="10" fill="none" fill-rule="evenodd"/><path d="M128.087 145.153 1002.67 145.153" stroke="#000000" stroke-width="1.33378" stroke-linejoin="round" stroke-miterlimit="10" fill="none" fill-rule="evenodd"/><path d="M18.2562 221.099 48.398 221.099" stroke="#000000" stroke-width="1.33378" stroke-linejoin="round" stroke-miterlimit="10" fill="none" fill-rule="evenodd"/><path d="M128.087 221.099 1002.67 221.099" stroke="#000000" stroke-width="1.33378" stroke-linejoin="round" stroke-miterlimit="10" fill="none" fill-rule="evenodd"/><path d="M18.2562 271.997 48.398 271.997" stroke="#000000" stroke-width="1.33378" stroke-linejoin="round" stroke-miterlimit="10" fill="none" fill-rule="evenodd"/><path d="M128.087 271.997 1002.67 271.997" stroke="#000000" stroke-width="1.33378" stroke-linejoin="round" stroke-miterlimit="10" fill="none" fill-rule="evenodd"/><path d="M18.2562 361.243 1002.67 361.243" stroke="#000000" stroke-width="1.33378" stroke-linejoin="round" stroke-miterlimit="10" fill="none" fill-rule="evenodd"/><path d="M18.2562 462.135 48.398 462.135" stroke="#000000" stroke-width="1.33378" stroke-linejoin="round" stroke-miterlimit="10" fill="none" fill-rule="evenodd"/><path d="M128.087 462.135 1002.67 462.135" stroke="#000000" stroke-width="1.33378" stroke-linejoin="round" stroke-miterlimit="10" fill="none" fill-rule="evenodd"/><path d="M18.2562 563.026 48.398 563.026" stroke="#000000" stroke-width="1.33378" stroke-linejoin="round" stroke-miterlimit="10" fill="none" fill-rule="evenodd"/><path d="M128.087 563.026 1002.67 563.026" stroke="#000000" stroke-width="1.33378" stroke-linejoin="round" stroke-miterlimit="10" fill="none" fill-rule="evenodd"/><path d="M18.2562 655.103 48.398 655.103" stroke="#000000" stroke-width="1.33378" stroke-linejoin="round" stroke-miterlimit="10" fill="none" fill-rule="evenodd"/><path d="M128.087 655.103 1002.67 655.103" stroke="#000000" stroke-width="1.33378" stroke-linejoin="round" stroke-miterlimit="10" fill="none" fill-rule="evenodd"/><path d="M18.2562 744.35 1002.67 744.35" stroke="#000000" stroke-width="1.33378" stroke-linejoin="round" stroke-miterlimit="10" fill="none" fill-rule="evenodd"/><path d="M18.2562 859.297 48.398 859.297" stroke="#000000" stroke-width="1.33378" stroke-linejoin="round" stroke-miterlimit="10" fill="none" fill-rule="evenodd"/><path d="M128.087 859.297 1002.67 859.297" stroke="#000000" stroke-width="1.33378" stroke-linejoin="round" stroke-miterlimit="10" fill="none" fill-rule="evenodd"/><path d="M18.2562 910.195 48.398 910.195" stroke="#000000" stroke-width="1.33378" stroke-linejoin="round" stroke-miterlimit="10" fill="none" fill-rule="evenodd"/><path d="M128.087 910.195 1002.67 910.195" stroke="#000000" stroke-width="1.33378" stroke-linejoin="round" stroke-miterlimit="10" fill="none" fill-rule="evenodd"/><path d="M18.2562 1002.27 1002.67 1002.27" stroke="#000000" stroke-width="1.33378" stroke-linejoin="round" stroke-miterlimit="10" fill="none" fill-rule="evenodd"/><path d="M18.2562 1103.16 48.398 1103.16" stroke="#000000" stroke-width="1.33378" stroke-linejoin="round" stroke-miterlimit="10" fill="none" fill-rule="evenodd"/><path d="M128.087 1103.16 1002.67 1103.16" stroke="#000000" stroke-width="1.33378" stroke-linejoin="round" stroke-miterlimit="10" fill="none" fill-rule="evenodd"/><path d="M18.2562 1179.11 48.398 1179.11" stroke="#000000" stroke-width="1.33378" stroke-linejoin="round" stroke-miterlimit="10" fill="none" fill-rule="evenodd"/><path d="M128.087 1179.11 1002.67 1179.11" stroke="#000000" stroke-width="1.33378" stroke-linejoin="round" stroke-miterlimit="10" fill="none" fill-rule="evenodd"/><path d="M18.923-0.666667 18.923 1280.67" stroke="#000000" stroke-width="1.33378" stroke-linejoin="round" stroke-miterlimit="10" fill="none" fill-rule="evenodd"/><path d="M1002-0.666667 1002 1280.67" stroke="#000000" stroke-width="1.33378" stroke-linejoin="round" stroke-miterlimit="10" fill="none" fill-rule="evenodd"/><path d="M18.2562 0 1002.67 0" stroke="#000000" stroke-width="1.33378" stroke-linejoin="round" stroke-miterlimit="10" fill="none" fill-rule="evenodd"/><path d="M18.2562 1280 1002.67 1280" stroke="#000000" stroke-width="1.33378" stroke-linejoin="round" stroke-miterlimit="10" fill="none" fill-rule="evenodd"/><g clip-path="url(#clip1)"><text font-family="SimSun,SimSun_MSFontService,sans-serif" font-weight="400" font-size="19" transform="matrix(1 0 0 0.999667 553.953 42)">例句</text></g><g clip-path="url(#clip2)"><text font-family="SimSun,SimSun_MSFontService,sans-serif" font-weight="400" font-size="19" transform="matrix(1 0 0 0.999667 266.181 42)">定义</text></g><g clip-path="url(#clip3)"><text font-family="SimSun,SimSun_MSFontService,sans-serif" font-weight="400" font-size="19" transform="matrix(1 0 0 0.999667 129.343 42)">细粒度错误类型</text></g><g clip-path="url(#clip4)"><text font-family="SimSun,SimSun_MSFontService,sans-serif" font-weight="400" font-size="19" transform="matrix(1 0 0 0.999667 48.32 30)">粗粒度错</text></g><g clip-path="url(#clip5)"><text font-family="SimSun,SimSun_MSFontService,sans-serif" font-weight="400" font-size="19" transform="matrix(1 0 0 0.999667 48.32 53)">误类型</text></g><g clip-path="url(#clip6)"><text font-family="SimSun,SimSun_MSFontService,sans-serif" font-weight="400" font-size="19" transform="matrix(1 0 0 0.999667 23.9907 42)">Id</text></g><g clip-path="url(#clip7)"><text font-family="SimSun,SimSun_MSFontService,sans-serif" font-weight="400" font-size="19" transform="matrix(1 0 0 0.999667 553.953 92)">有一次，他在搭一个十分繁杂的积木，我上前正要去</text></g><g clip-path="url(#clip8)"><text font-family="SimSun,SimSun_MSFontService,sans-serif" font-weight="400" font-size="19" transform="matrix(1 0 0 0.999667 553.953 115)">帮他，他把我推了推说：“我不需要你们的帮，我觉</text></g><g clip-path="url(#clip9)"><text font-family="SimSun,SimSun_MSFontService,sans-serif" font-weight="400" font-size="19" transform="matrix(1 0 0 0.999667 553.953 137)">得我自己可以拼好。”（缺少“助”）</text></g><g clip-path="url(#clip10)"><text font-family="SimSun,SimSun_MSFontService,sans-serif" font-weight="400" font-size="19" transform="matrix(1 0 0 0.999667 266.181 114)">句子中缺少字（需要添加）</text></g><g clip-path="url(#clip11)"><text font-family="SimSun,SimSun_MSFontService,sans-serif" font-weight="400" font-size="19" transform="matrix(1 0 0 0.999667 129.343 114)">缺字漏字</text></g><g clip-path="url(#clip12)"><text font-family="SimSun,SimSun_MSFontService,sans-serif" font-weight="400" font-size="19" transform="matrix(1 0 0 0.999667 48.32 211)">字符级错</text></g><g clip-path="url(#clip13)"><text font-family="SimSun,SimSun_MSFontService,sans-serif" font-weight="400" font-size="19" transform="matrix(1 0 0 0.999667 48.32 234)">误</text></g><g clip-path="url(#clip14)"><text font-family="SimSun,SimSun_MSFontService,sans-serif" font-weight="400" font-size="19" transform="matrix(1 0 0 0.999667 28.6589 114)">1</text></g><g clip-path="url(#clip15)"><text font-family="SimSun,SimSun_MSFontService,sans-serif" font-weight="400" font-size="19" transform="matrix(1 0 0 0.999667 553.953 168)">今天的“云”游秦淮河到这里就要结束了，若想真实</text></g><g clip-path="url(#clip16)"><text font-family="SimSun,SimSun_MSFontService,sans-serif" font-weight="400" font-size="19" transform="matrix(1 0 0 0.999667 553.953 191)">地感受秦谁河所承载的历史与韵味，还需亲自前去一</text></g><g clip-path="url(#clip17)"><text font-family="SimSun,SimSun_MSFontService,sans-serif" font-weight="400" font-size="19" transform="matrix(1 0 0 0.999667 553.953 213)">览。（“谁”应为“淮”）</text></g><g clip-path="url(#clip18)"><text font-family="SimSun,SimSun_MSFontService,sans-serif" font-weight="400" font-size="19" transform="matrix(1 0 0 0.999667 266.181 179)">句子中出现错别字（需要修改或删</text></g><g clip-path="url(#clip19)"><text font-family="SimSun,SimSun_MSFontService,sans-serif" font-weight="400" font-size="19" transform="matrix(1 0 0 0.999667 266.181 202)">除）</text></g><g clip-path="url(#clip20)"><text font-family="SimSun,SimSun_MSFontService,sans-serif" font-weight="400" font-size="19" transform="matrix(1 0 0 0.999667 129.343 190)">错别字错误</text></g><g clip-path="url(#clip21)"><text font-family="SimSun,SimSun_MSFontService,sans-serif" font-weight="400" font-size="19" transform="matrix(1 0 0 0.999667 28.6589 190)">2</text></g><g clip-path="url(#clip22)"><text font-family="SimSun,SimSun_MSFontService,sans-serif" font-weight="400" font-size="19" transform="matrix(1 0 0 0.999667 553.953 242)">俗语曰“技多不压身，我们掌握的技巧越多越广泛，</text></g><g clip-path="url(#clip23)"><text font-family="SimSun,SimSun_MSFontService,sans-serif" font-weight="400" font-size="19" transform="matrix(1 0 0 0.999667 553.953 265)">我们的生活就越多姿多彩。（“曰”后缺少冒号）</text></g><g clip-path="url(#clip24)"><text font-family="SimSun,SimSun_MSFontService,sans-serif" font-weight="400" font-size="19" transform="matrix(1 0 0 0.999667 266.181 242)">应断句的地方没有使用标点把句子</text></g><g clip-path="url(#clip25)"><text font-family="SimSun,SimSun_MSFontService,sans-serif" font-weight="400" font-size="19" transform="matrix(1 0 0 0.999667 266.181 265)">断开</text></g><g clip-path="url(#clip26)"><text font-family="SimSun,SimSun_MSFontService,sans-serif" font-weight="400" font-size="19" transform="matrix(1 0 0 0.999667 129.343 254)">缺少标点</text></g><g clip-path="url(#clip27)"><text font-family="SimSun,SimSun_MSFontService,sans-serif" font-weight="400" font-size="19" transform="matrix(1 0 0 0.999667 28.6589 254)">3</text></g><g clip-path="url(#clip28)"><text font-family="SimSun,SimSun_MSFontService,sans-serif" font-weight="400" font-size="19" transform="matrix(1 0 0 0.999667 553.953 301)">人之所以从众多动物中脱颖而出，主宰这个星球，是</text></g><g clip-path="url(#clip29)"><text font-family="SimSun,SimSun_MSFontService,sans-serif" font-weight="400" font-size="19" transform="matrix(1 0 0 0.999667 553.953 324)">因为人类拥有更多利于生存的技巧，如直立行走，使</text></g><g clip-path="url(#clip30)"><text font-family="SimSun,SimSun_MSFontService,sans-serif" font-weight="400" font-size="19" transform="matrix(1 0 0 0.999667 553.953 346)">用工具等；（应为“如直立行走、使用工具等。”）</text></g><g clip-path="url(#clip31)"><text font-family="SimSun,SimSun_MSFontService,sans-serif" font-weight="400" font-size="19" transform="matrix(1 0 0 0.999667 266.181 312)">标点使用错误，如本来应使用句号</text></g><g clip-path="url(#clip32)"><text font-family="SimSun,SimSun_MSFontService,sans-serif" font-weight="400" font-size="19" transform="matrix(1 0 0 0.999667 266.181 335)">或分号却使用逗号</text></g><g clip-path="url(#clip33)"><text font-family="SimSun,SimSun_MSFontService,sans-serif" font-weight="400" font-size="19" transform="matrix(1 0 0 0.999667 129.343 324)">错用标点</text></g><g clip-path="url(#clip34)"><text font-family="SimSun,SimSun_MSFontService,sans-serif" font-weight="400" font-size="19" transform="matrix(1 0 0 0.999667 28.6589 324)">4</text></g><g clip-path="url(#clip35)"><text font-family="SimSun,SimSun_MSFontService,sans-serif" font-weight="400" font-size="19" transform="matrix(1 0 0 0.999667 553.953 385)">看着手中的饭也没了胃口，出门往东边的坟墓看去，</text></g><g clip-path="url(#clip36)"><text font-family="SimSun,SimSun_MSFontService,sans-serif" font-weight="400" font-size="19" transform="matrix(1 0 0 0.999667 553.953 408)">眼泪瞬间流下，滴落在了衣服上，出现深色小圆点，</text></g><g clip-path="url(#clip37)"><text font-family="SimSun,SimSun_MSFontService,sans-serif" font-weight="400" font-size="19" transform="matrix(1 0 0 0.999667 553.953 430)">又接二连三的掉下来。（应该为“出现了深色小圆点，</text></g><g clip-path="url(#clip38)"><text font-family="SimSun,SimSun_MSFontService,sans-serif" font-weight="400" font-size="19" transform="matrix(1 0 0 0.999667 553.953 452)">眼泪又接二连三地掉下来”）</text></g><g clip-path="url(#clip39)"><text font-family="SimSun,SimSun_MSFontService,sans-serif" font-weight="400" font-size="19" transform="matrix(1 0 0 0.999667 266.181 407)">句子缺少主语，或主语不清晰，修</text></g><g clip-path="url(#clip40)"><text font-family="SimSun,SimSun_MSFontService,sans-serif" font-weight="400" font-size="19" transform="matrix(1 0 0 0.999667 266.181 430)">改是要增加主语或使主语显现</text></g><g clip-path="url(#clip41)"><text font-family="SimSun,SimSun_MSFontService,sans-serif" font-weight="400" font-size="19" transform="matrix(1 0 0 0.999667 129.343 419)">主语不明</text></g><g clip-path="url(#clip42)"><text font-family="SimSun,SimSun_MSFontService,sans-serif" font-weight="400" font-size="19" transform="matrix(1 0 0 0.999667 48.32 549)">成分残缺</text></g><g clip-path="url(#clip43)"><text font-family="SimSun,SimSun_MSFontService,sans-serif" font-weight="400" font-size="19" transform="matrix(1 0 0 0.999667 48.32 572)">型错误</text></g><g clip-path="url(#clip44)"><text font-family="SimSun,SimSun_MSFontService,sans-serif" font-weight="400" font-size="19" transform="matrix(1 0 0 0.999667 28.6589 419)">5</text></g><g clip-path="url(#clip45)"><text font-family="SimSun,SimSun_MSFontService,sans-serif" font-weight="400" font-size="19" transform="matrix(1 0 0 0.999667 553.953 486)">走进那里仿佛（走进了）爱丽丝梦游仙境，传统的旋</text></g><g clip-path="url(#clip46)"><text font-family="SimSun,SimSun_MSFontService,sans-serif" font-weight="400" font-size="19" transform="matrix(1 0 0 0.999667 553.953 509)">转木马全换了形态各异的大鸟，旁边的转车也变成了</text></g><g clip-path="url(#clip47)"><text font-family="SimSun,SimSun_MSFontService,sans-serif" font-weight="400" font-size="19" transform="matrix(1 0 0 0.999667 553.953 531)">狮子和老虎追逐，大家是不是也想来坐一坐呢？（缺</text></g><g clip-path="url(#clip48)"><text font-family="SimSun,SimSun_MSFontService,sans-serif" font-weight="400" font-size="19" transform="matrix(1 0 0 0.999667 553.953 553)">少谓语“走进了”）</text></g><g clip-path="url(#clip49)"><text font-family="SimSun,SimSun_MSFontService,sans-serif" font-weight="400" font-size="19" transform="matrix(1 0 0 0.999667 266.181 520)">句子缺少谓语，修改是要增加谓语</text></g><g clip-path="url(#clip50)"><text font-family="SimSun,SimSun_MSFontService,sans-serif" font-weight="400" font-size="19" transform="matrix(1 0 0 0.999667 129.343 520)">谓语残缺</text></g><g clip-path="url(#clip51)"><text font-family="SimSun,SimSun_MSFontService,sans-serif" font-weight="400" font-size="19" transform="matrix(1 0 0 0.999667 28.6589 520)">6</text></g><g clip-path="url(#clip52)"><text font-family="SimSun,SimSun_MSFontService,sans-serif" font-weight="400" font-size="19" transform="matrix(1 0 0 0.999667 553.953 594)">然而我想说，并不是所有书籍都有能力完成承载读者</text></g><g clip-path="url(#clip53)"><text font-family="SimSun,SimSun_MSFontService,sans-serif" font-weight="400" font-size="19" transform="matrix(1 0 0 0.999667 553.953 617)">（的任务），如同一艘船一样驶向对生活、对人类、</text></g><g clip-path="url(#clip54)"><text font-family="SimSun,SimSun_MSFontService,sans-serif" font-weight="400" font-size="19" transform="matrix(1 0 0 0.999667 553.953 639)">乃至对社会的思考的海面的。（“完成</text></g><text font-family="SimSun,SimSun_MSFontService,sans-serif" font-weight="400" font-size="19" transform="matrix(1 0 0 0.999667 871.392 639)">xxx</text><g clip-path="url(#clip55)"><text font-family="SimSun,SimSun_MSFontService,sans-serif" font-weight="400" font-size="19" transform="matrix(1 0 0 0.999667 899.402 639)">的任务”）</text></g><g clip-path="url(#clip56)"><text font-family="SimSun,SimSun_MSFontService,sans-serif" font-weight="400" font-size="19" transform="matrix(1 0 0 0.999667 266.181 616)">句子缺少宾语，修改是要增加宾语</text></g><g clip-path="url(#clip57)"><text font-family="SimSun,SimSun_MSFontService,sans-serif" font-weight="400" font-size="19" transform="matrix(1 0 0 0.999667 129.343 616)">宾语残缺</text></g><g clip-path="url(#clip58)"><text font-family="SimSun,SimSun_MSFontService,sans-serif" font-weight="400" font-size="19" transform="matrix(1 0 0 0.999667 28.6589 616)">7</text></g><g clip-path="url(#clip59)"><text font-family="SimSun,SimSun_MSFontService,sans-serif" font-weight="400" font-size="19" transform="matrix(1 0 0 0.999667 553.953 684)">爱迪生为改良电灯艰苦奋斗</text></g><text font-family="SimSun,SimSun_MSFontService,sans-serif" font-weight="400" font-size="19" transform="matrix(1 0 0 0.999667 778.028 684)">13</text><text font-family="SimSun,SimSun_MSFontService,sans-serif" font-weight="400" font-size="19" transform="matrix(1 0 0 0.999667 796.701 684)">年，试用</text><text font-family="SimSun,SimSun_MSFontService,sans-serif" font-weight="400" font-size="19" transform="matrix(1 0 0 0.999667 871.392 684)">6000</text><text font-family="SimSun,SimSun_MSFontService,sans-serif" font-weight="400" font-size="19" transform="matrix(1 0 0 0.999667 908.738 684)">多材料，</text><g clip-path="url(#clip60)"><text font-family="SimSun,SimSun_MSFontService,sans-serif" font-weight="400" font-size="19" transform="matrix(1 0 0 0.999667 553.953 707)">试验</text></g><text font-family="SimSun,SimSun_MSFontService,sans-serif" font-weight="400" font-size="19" transform="matrix(1 0 0 0.999667 591.299 707)">7000</text><text font-family="SimSun,SimSun_MSFontService,sans-serif" font-weight="400" font-size="19" transform="matrix(1 0 0 0.999667 628.645 707)">多次。失败便从头再来，直至最后发现了钨</text><g clip-path="url(#clip61)"><text font-family="SimSun,SimSun_MSFontService,sans-serif" font-weight="400" font-size="19" transform="matrix(1 0 0 0.999667 553.953 729)">丝。（缺少“种”，应改为“试用</text></g><text font-family="SimSun,SimSun_MSFontService,sans-serif" font-weight="400" font-size="19" transform="matrix(1 0 0 0.999667 834.046 729)">6000</text><text font-family="SimSun,SimSun_MSFontService,sans-serif" font-weight="400" font-size="19" transform="matrix(1 0 0 0.999667 871.392 729)">多种材料”）</text><g clip-path="url(#clip62)"><text font-family="SimSun,SimSun_MSFontService,sans-serif" font-weight="400" font-size="19" transform="matrix(1 0 0 0.999667 266.181 695)">修改是要增加除主语、谓语、宾语</text></g><g clip-path="url(#clip63)"><text font-family="SimSun,SimSun_MSFontService,sans-serif" font-weight="400" font-size="19" transform="matrix(1 0 0 0.999667 266.181 718)">之外的其他情况</text></g><g clip-path="url(#clip64)"><text font-family="SimSun,SimSun_MSFontService,sans-serif" font-weight="400" font-size="19" transform="matrix(1 0 0 0.999667 129.343 707)">其他成分残缺</text></g><g clip-path="url(#clip65)"><text font-family="SimSun,SimSun_MSFontService,sans-serif" font-weight="400" font-size="19" transform="matrix(1 0 0 0.999667 28.6589 707)">8</text></g><g clip-path="url(#clip66)"><text font-family="SimSun,SimSun_MSFontService,sans-serif" font-weight="400" font-size="19" transform="matrix(1 0 0 0.999667 553.953 797)">我过了一会儿，我完成了测试。老师说等消息。（去</text></g><g clip-path="url(#clip67)"><text font-family="SimSun,SimSun_MSFontService,sans-serif" font-weight="400" font-size="19" transform="matrix(1 0 0 0.999667 553.953 820)">掉第一个“我”）</text></g><g clip-path="url(#clip68)"><text font-family="SimSun,SimSun_MSFontService,sans-serif" font-weight="400" font-size="19" transform="matrix(1 0 0 0.999667 266.181 775)">一般是句子较长，前一个主语说出</text></g><g clip-path="url(#clip69)"><text font-family="SimSun,SimSun_MSFontService,sans-serif" font-weight="400" font-size="19" transform="matrix(1 0 0 0.999667 266.181 798)">后，紧接着有一个较长、较复杂的</text></g><g clip-path="url(#clip70)"><text font-family="SimSun,SimSun_MSFontService,sans-serif" font-weight="400" font-size="19" transform="matrix(1 0 0 0.999667 266.181 820)">状语，后面又接了指向同一个事物</text></g><g clip-path="url(#clip71)"><text font-family="SimSun,SimSun_MSFontService,sans-serif" font-weight="400" font-size="19" transform="matrix(1 0 0 0.999667 266.181 842)">的主语；修改是要删除主语</text></g><g clip-path="url(#clip72)"><text font-family="SimSun,SimSun_MSFontService,sans-serif" font-weight="400" font-size="19" transform="matrix(1 0 0 0.999667 129.343 809)">主语多余</text></g><g clip-path="url(#clip73)"><text font-family="SimSun,SimSun_MSFontService,sans-serif" font-weight="400" font-size="19" transform="matrix(1 0 0 0.999667 48.32 869)">成分赘余</text></g><g clip-path="url(#clip74)"><text font-family="SimSun,SimSun_MSFontService,sans-serif" font-weight="400" font-size="19" transform="matrix(1 0 0 0.999667 48.32 892)">型错误</text></g><g clip-path="url(#clip75)"><text font-family="SimSun,SimSun_MSFontService,sans-serif" font-weight="400" font-size="19" transform="matrix(1 0 0 0.999667 28.6589 809)">9</text></g><g clip-path="url(#clip76)"><text font-family="SimSun,SimSun_MSFontService,sans-serif" font-weight="400" font-size="19" transform="matrix(1 0 0 0.999667 553.953 880)">那几根藤好像姑娘</text></g><text font-family="SimSun,SimSun_MSFontService,sans-serif" font-weight="400" font-size="19" transform="matrix(1 0 0 0.999667 703.336 880)">的</text><text font-family="SimSun,SimSun_MSFontService,sans-serif" font-weight="400" font-size="19" transform="matrix(1 0 0 0.999667 722.009 880)">染了个绿色</text><text font-family="SimSun,SimSun_MSFontService,sans-serif" font-weight="400" font-size="19" transform="matrix(1 0 0 0.999667 815.374 880)">的</text><text font-family="SimSun,SimSun_MSFontService,sans-serif" font-weight="400" font-size="19" transform="matrix(1 0 0 0.999667 834.046 880)">长头发。（“的”</text><path d="M148.95 10.9963 167.944 10.9963 167.944 11.996 148.95 11.996Z" fill-rule="evenodd" transform="matrix(1.00033 0 0 1 553.953 862.353)"/><path d="M260.913 10.9963 279.907 10.9963 279.907 11.996 260.913 11.996Z" fill-rule="evenodd" transform="matrix(1.00033 0 0 1 553.953 862.353)"/><g clip-path="url(#clip77)"><text font-family="SimSun,SimSun_MSFontService,sans-serif" font-weight="400" font-size="19" transform="matrix(1 0 0 0.999667 553.953 903)">字赘余）</text></g><g clip-path="url(#clip78)"><text font-family="SimSun,SimSun_MSFontService,sans-serif" font-weight="400" font-size="19" transform="matrix(1 0 0 0.999667 266.181 880)">助词“的”、“所”的多余，需改</text></g><g clip-path="url(#clip79)"><text font-family="SimSun,SimSun_MSFontService,sans-serif" font-weight="400" font-size="19" transform="matrix(1 0 0 0.999667 266.181 903)">是要删除虚词</text></g><g clip-path="url(#clip80)"><text font-family="SimSun,SimSun_MSFontService,sans-serif" font-weight="400" font-size="19" transform="matrix(1 0 0 0.999667 129.343 892)">虚词多余</text></g><g clip-path="url(#clip81)"><text font-family="SimSun,SimSun_MSFontService,sans-serif" font-weight="400" font-size="19" transform="matrix(1 0 0 0.999667 23.9907 892)">10</text></g><g clip-path="url(#clip82)"><text font-family="SimSun,SimSun_MSFontService,sans-serif" font-weight="400" font-size="19" transform="matrix(1 0 0 0.999667 553.953 941)">我特别喜欢猛兽区，都是一些平时见不到的洲狮，孟</text></g><g clip-path="url(#clip83)"><text font-family="SimSun,SimSun_MSFontService,sans-serif" font-weight="400" font-size="19" transform="matrix(1 0 0 0.999667 553.953 964)">加拉虚等猛兽，据说这里有</text></g><text font-family="SimSun,SimSun_MSFontService,sans-serif" font-weight="400" font-size="19" transform="matrix(1 0 0 0.999667 778.028 964)">300</text><g clip-path="url(#clip84)"><text font-family="SimSun,SimSun_MSFontService,sans-serif" font-weight="400" font-size="19" transform="matrix(1 0 0 0.999667 806.037 964)">多只老虎生活在这里呢，</text></g><g clip-path="url(#clip85)"><text font-family="SimSun,SimSun_MSFontService,sans-serif" font-weight="400" font-size="19" transform="matrix(1 0 0 0.999667 553.953 986)">是不是很惊叹呢！（多个“这里”，表述重复）</text></g><g clip-path="url(#clip86)"><text font-family="SimSun,SimSun_MSFontService,sans-serif" font-weight="400" font-size="19" transform="matrix(1 0 0 0.999667 266.181 941)">除主语、虚词之外的成分多余，修</text></g><g clip-path="url(#clip87)"><text font-family="SimSun,SimSun_MSFontService,sans-serif" font-weight="400" font-size="19" transform="matrix(1 0 0 0.999667 266.181 964)">改是要删除除上面</text></g><text font-family="SimSun,SimSun_MSFontService,sans-serif" font-weight="400" font-size="19" transform="matrix(1 0 0 0.999667 415.564 964)">2</text><text font-family="SimSun,SimSun_MSFontService,sans-serif" font-weight="400" font-size="19" transform="matrix(1 0 0 0.999667 424.901 964)">种情况之外的</text><g clip-path="url(#clip88)"><text font-family="SimSun,SimSun_MSFontService,sans-serif" font-weight="400" font-size="19" transform="matrix(1 0 0 0.999667 266.181 986)">词</text></g><g clip-path="url(#clip89)"><text font-family="SimSun,SimSun_MSFontService,sans-serif" font-weight="400" font-size="19" transform="matrix(1 0 0 0.999667 129.343 963)">其他成分多余</text></g><g clip-path="url(#clip90)"><text font-family="SimSun,SimSun_MSFontService,sans-serif" font-weight="400" font-size="19" transform="matrix(1 0 0 0.999667 23.9907 963)">11</text></g><g clip-path="url(#clip91)"><text font-family="SimSun,SimSun_MSFontService,sans-serif" font-weight="400" font-size="19" transform="matrix(1 0 0 0.999667 553.953 1026)">一次受到生活打击的祥子也没有放弃，他卖掉路驼，</text></g><g clip-path="url(#clip92)"><text font-family="SimSun,SimSun_MSFontService,sans-serif" font-weight="400" font-size="19" transform="matrix(1 0 0 0.999667 553.953 1049)">得到了些许钱财。（语序不当，正确语序应为：受到</text></g><g clip-path="url(#clip93)"><text font-family="SimSun,SimSun_MSFontService,sans-serif" font-weight="400" font-size="19" transform="matrix(1 0 0 0.999667 553.953 1071)">生活打击的祥子一次也没有放弃，他卖掉路驼，得到</text></g><g clip-path="url(#clip94)"><text font-family="SimSun,SimSun_MSFontService,sans-serif" font-weight="400" font-size="19" transform="matrix(1 0 0 0.999667 553.953 1093)">了些许钱财。）</text></g><g clip-path="url(#clip95)"><text font-family="SimSun,SimSun_MSFontService,sans-serif" font-weight="400" font-size="19" transform="matrix(1 0 0 0.999667 266.181 1037)">句子中词语或子句的顺序不合理，</text></g><g clip-path="url(#clip96)"><text font-family="SimSun,SimSun_MSFontService,sans-serif" font-weight="400" font-size="19" transform="matrix(1 0 0 0.999667 266.181 1060)">修改是调换某几个词汇或子句的顺</text></g><g clip-path="url(#clip97)"><text font-family="SimSun,SimSun_MSFontService,sans-serif" font-weight="400" font-size="19" transform="matrix(1 0 0 0.999667 266.181 1082)">序</text></g><g clip-path="url(#clip98)"><text font-family="SimSun,SimSun_MSFontService,sans-serif" font-weight="400" font-size="19" transform="matrix(1 0 0 0.999667 129.343 1059)">语序不当</text></g><g clip-path="url(#clip99)"><text font-family="SimSun,SimSun_MSFontService,sans-serif" font-weight="400" font-size="19" transform="matrix(1 0 0 0.999667 48.32 1125)">成分搭配</text></g><g clip-path="url(#clip100)"><text font-family="SimSun,SimSun_MSFontService,sans-serif" font-weight="400" font-size="19" transform="matrix(1 0 0 0.999667 48.32 1148)">不当型错</text></g><g clip-path="url(#clip101)"><text font-family="SimSun,SimSun_MSFontService,sans-serif" font-weight="400" font-size="19" transform="matrix(1 0 0 0.999667 48.32 1170)">误</text></g><g clip-path="url(#clip102)"><text font-family="SimSun,SimSun_MSFontService,sans-serif" font-weight="400" font-size="19" transform="matrix(1 0 0 0.999667 23.9907 1059)">12</text></g><g clip-path="url(#clip103)"><text font-family="SimSun,SimSun_MSFontService,sans-serif" font-weight="400" font-size="19" transform="matrix(1 0 0 0.999667 553.953 1125)">这次的期中考试，我终于让徐老师欣慰，尽管不是班</text></g><g clip-path="url(#clip104)"><text font-family="SimSun,SimSun_MSFontService,sans-serif" font-weight="400" font-size="19" transform="matrix(1 0 0 0.999667 553.953 1148)">里最高分，但也达到了很大的进步。（“达到”应该</text></g><g clip-path="url(#clip105)"><text font-family="SimSun,SimSun_MSFontService,sans-serif" font-weight="400" font-size="19" transform="matrix(1 0 0 0.999667 553.953 1170)">是“取得”）</text></g><g clip-path="url(#clip106)"><text font-family="SimSun,SimSun_MSFontService,sans-serif" font-weight="400" font-size="19" transform="matrix(1 0 0 0.999667 266.181 1137)">谓语与宾语搭配不当，修改是要用</text></g><g clip-path="url(#clip107)"><text font-family="SimSun,SimSun_MSFontService,sans-serif" font-weight="400" font-size="19" transform="matrix(1 0 0 0.999667 266.181 1160)">其他词替换句子的谓语或宾语</text></g><g clip-path="url(#clip108)"><text font-family="SimSun,SimSun_MSFontService,sans-serif" font-weight="400" font-size="19" transform="matrix(1 0 0 0.999667 129.343 1148)">动宾搭配不当</text></g><g clip-path="url(#clip109)"><text font-family="SimSun,SimSun_MSFontService,sans-serif" font-weight="400" font-size="19" transform="matrix(1 0 0 0.999667 23.9907 1148)">13</text></g><g clip-path="url(#clip110)"><text font-family="SimSun,SimSun_MSFontService,sans-serif" font-weight="400" font-size="19" transform="matrix(1 0 0 0.999667 553.953 1203)">阳光晒下了大地，春风温柔地摸了摸行人的脸庞，在</text></g><g clip-path="url(#clip111)"><text font-family="SimSun,SimSun_MSFontService,sans-serif" font-weight="400" font-size="19" transform="matrix(1 0 0 0.999667 553.953 1226)">各个美丽的地方，他们有的会拿起相机“咔嚓”一下，</text></g><g clip-path="url(#clip112)"><text font-family="SimSun,SimSun_MSFontService,sans-serif" font-weight="400" font-size="19" transform="matrix(1 0 0 0.999667 553.953 1248)">把这当做春天的一份礼物永恒地保存下来。（应该为</text></g><g clip-path="url(#clip113)"><text font-family="SimSun,SimSun_MSFontService,sans-serif" font-weight="400" font-size="19" transform="matrix(1 0 0 0.999667 553.953 1270)">“阳光洒向大地”）</text></g><g clip-path="url(#clip114)"><text font-family="SimSun,SimSun_MSFontService,sans-serif" font-weight="400" font-size="19" transform="matrix(1 0 0 0.999667 266.181 1214)">除动宾、语序不当不当之外的其他</text></g><g clip-path="url(#clip115)"><text font-family="SimSun,SimSun_MSFontService,sans-serif" font-weight="400" font-size="19" transform="matrix(1 0 0 0.999667 266.181 1237)">搭配不当情况，修改是要用其他词</text></g><g clip-path="url(#clip116)"><text font-family="SimSun,SimSun_MSFontService,sans-serif" font-weight="400" font-size="19" transform="matrix(1 0 0 0.999667 266.181 1259)">替换句子中的某个成分</text></g><g clip-path="url(#clip117)"><text font-family="SimSun,SimSun_MSFontService,sans-serif" font-weight="400" font-size="19" transform="matrix(1 0 0 0.999667 129.343 1236)">其他搭配不当</text></g><g clip-path="url(#clip118)"><text font-family="SimSun,SimSun_MSFontService,sans-serif" font-weight="400" font-size="19" transform="matrix(1 0 0 0.999667 23.9907 1236)">14</text></g></g></svg>